<svg id="svg" version="1.1" xmlns="http://www.w3.org/2000/svg" xmlns:xlink="http://www.w3.org/1999/xlink" width="400" height="400" viewBox="0, 0, 400,400"><g id="svgg"><path id="path0" d="M129.100 104.620 C 128.451 105.298,128.875 105.968,130.589 106.973 C 132.763 108.247,134.093 110.441,134.848 114.000 C 135.667 117.858,135.664 208.750,134.846 212.000 C 133.843 215.980,132.263 218.268,129.900 219.163 C 129.199 219.429,128.800 219.874,128.800 220.390 C 128.800 221.187,129.013 221.200,142.000 221.200 C 154.987 221.200,155.200 221.187,155.200 220.390 C 155.200 219.919,154.824 219.437,154.300 219.237 C 149.272 217.320,148.801 214.346,148.800 184.500 L 148.800 160.800 156.374 160.800 C 170.733 160.800,176.701 163.710,181.520 173.061 L 183.200 176.322 183.200 217.735 C 183.200 261.191,183.148 262.620,181.439 265.924 C 180.701 267.351,178.835 269.204,177.700 269.637 C 177.176 269.837,176.800 270.319,176.800 270.790 C 176.800 271.587,177.013 271.600,190.000 271.600 C 202.828 271.600,203.200 271.578,203.200 270.819 C 203.200 270.319,202.695 269.798,201.795 269.371 C 196.957 267.075,196.441 263.465,196.423 231.800 C 196.411 208.886,196.454 208.597,199.204 213.468 C 202.702 219.667,206.766 222.096,214.000 222.311 C 221.664 222.539,227.799 220.583,221.354 219.966 C 217.706 219.617,215.592 218.016,212.879 213.553 C 211.066 210.568,209.182 210.782,236.300 210.897 L 260.600 211.000 260.710 235.200 C 260.845 264.672,260.493 267.146,255.854 269.348 C 254.914 269.794,254.400 270.314,254.400 270.819 C 254.400 271.578,254.772 271.600,267.600 271.600 C 280.428 271.600,280.800 271.578,280.800 270.819 C 280.800 270.317,280.292 269.796,279.377 269.362 C 277.033 268.250,275.689 265.981,274.825 261.680 C 274.155 258.339,274.269 167.337,274.947 164.200 C 275.757 160.458,277.253 158.291,280.210 156.574 C 280.681 156.301,280.850 155.906,280.682 155.469 C 280.442 154.845,279.351 154.798,267.510 154.894 C 253.013 155.013,252.931 155.033,256.400 157.655 C 260.544 160.788,260.769 162.337,260.786 187.900 L 260.800 208.800 235.618 208.800 L 210.436 208.800 208.996 205.764 C 208.203 204.094,205.930 198.649,203.944 193.664 C 201.958 188.679,199.453 182.605,198.378 180.168 L 196.423 175.735 196.773 169.968 C 197.261 161.892,198.338 159.081,201.658 157.216 C 204.667 155.525,203.756 155.016,197.495 154.889 C 191.480 154.767,191.190 154.610,193.700 152.838 C 202.344 146.736,206.698 136.632,205.057 126.479 C 203.066 114.153,194.665 108.128,175.400 105.207 C 171.721 104.649,129.583 104.115,129.100 104.620 M165.103 106.990 C 178.835 109.071,187.000 114.997,190.467 125.400 C 194.506 137.520,187.656 154.800,178.811 154.800 C 177.461 154.800,177.105 154.971,176.725 155.804 C 175.758 157.927,169.399 158.873,157.200 158.710 L 149.000 158.600 148.897 132.727 L 148.794 106.854 149.897 106.687 C 152.619 106.275,161.558 106.453,165.103 106.990 M181.393 160.642 C 182.309 162.573,181.838 162.910,179.186 162.221 C 177.983 161.908,176.145 161.438,175.100 161.174 C 172.612 160.548,172.703 160.217,175.500 159.723 C 180.005 158.926,180.625 159.023,181.393 160.642 " stroke="none" fill="#050505" fill-rule="evenodd"></path><path id="path1" d="M0.000 200.000 L 0.000 400.000 200.000 400.000 L 400.000 400.000 400.000 200.000 L 400.000 0.000 200.000 0.000 L 0.000 0.000 0.000 200.000 M173.932 104.428 C 185.266 105.684,193.315 108.489,198.671 113.049 C 209.306 122.104,208.194 141.753,196.494 151.490 C 193.297 154.150,193.315 154.172,198.898 154.400 L 203.800 154.600 203.925 155.679 C 204.029 156.588,203.796 156.888,202.448 157.576 C 198.985 159.342,197.707 162.706,197.348 171.000 L 197.122 176.200 198.506 179.000 C 199.267 180.540,201.643 186.202,203.786 191.581 C 205.928 196.961,208.372 202.856,209.215 204.681 L 210.748 208.000 235.574 208.000 L 260.400 208.000 260.389 189.900 C 260.373 163.311,259.905 160.300,255.400 157.816 C 254.129 157.116,253.774 156.674,253.675 155.667 L 253.549 154.400 267.575 154.400 L 281.600 154.400 281.600 155.570 C 281.600 156.531,281.299 156.906,279.915 157.670 C 274.737 160.529,274.728 160.634,274.895 216.400 C 275.051 268.135,274.872 266.230,279.797 268.842 C 281.713 269.858,282.338 271.631,280.967 272.157 C 280.141 272.474,255.059 272.474,254.233 272.157 C 253.280 271.792,253.408 269.715,254.402 269.399 C 255.626 269.011,257.553 267.250,258.284 265.852 C 260.042 262.492,260.119 261.340,260.293 235.900 L 260.460 211.600 236.630 211.600 C 223.523 211.600,212.800 211.755,212.800 211.944 C 212.800 212.951,216.636 217.627,218.200 218.525 C 218.640 218.778,220.170 219.078,221.600 219.193 C 224.062 219.389,224.207 219.457,224.324 220.473 C 224.500 221.995,223.571 222.358,218.142 222.890 C 208.389 223.846,203.307 221.528,198.788 214.064 L 197.175 211.400 197.316 236.200 C 197.483 265.617,197.569 266.212,202.011 268.804 C 203.866 269.887,204.573 271.391,203.535 272.049 C 202.931 272.431,177.613 272.534,176.633 272.157 C 175.293 271.643,175.932 269.872,177.915 268.600 C 182.695 265.534,182.600 266.576,182.600 217.400 L 182.600 176.200 180.800 173.022 C 175.626 163.889,170.315 161.418,156.400 161.672 L 149.400 161.800 149.449 185.200 C 149.510 214.155,149.681 215.371,154.108 218.200 C 156.094 219.469,156.720 221.238,155.367 221.757 C 153.867 222.333,128.914 222.020,128.416 221.419 C 127.652 220.498,128.304 219.313,130.121 218.318 C 134.872 215.720,134.865 215.808,134.716 160.600 L 134.591 114.600 133.718 112.200 C 132.879 109.895,132.109 108.984,128.967 106.580 C 128.146 105.951,127.961 105.554,128.175 104.880 L 128.454 104.000 149.259 104.000 C 161.375 104.000,171.679 104.179,173.932 104.428 M149.700 107.465 C 149.307 107.623,149.200 113.074,149.200 132.833 L 149.200 158.000 158.500 157.997 C 170.492 157.993,175.656 157.209,175.921 155.353 C 176.024 154.629,176.386 154.476,178.436 154.290 C 185.366 153.662,190.923 144.730,190.937 134.200 C 190.956 119.595,182.128 110.243,166.000 107.784 C 162.433 107.240,150.820 107.013,149.700 107.465 M177.600 160.105 L 175.800 160.525 177.400 161.001 C 180.902 162.043,181.200 162.069,180.927 161.305 C 180.608 160.410,179.976 159.587,179.651 159.643 C 179.513 159.666,178.590 159.875,177.600 160.105 " stroke="none" fill="#fbfbfb" fill-rule="evenodd"></path><path id="path2" d="M129.061 104.300 C 128.893 104.573,142.142 104.567,157.400 104.287 C 160.700 104.227,155.716 104.138,146.324 104.089 C 136.932 104.040,129.164 104.135,129.061 104.300 M165.500 104.693 C 166.435 104.777,167.965 104.777,168.900 104.693 C 169.835 104.609,169.070 104.540,167.200 104.540 C 165.330 104.540,164.565 104.609,165.500 104.693 M175.000 105.223 C 177.026 105.642,178.663 105.623,177.000 105.200 C 176.340 105.032,175.260 104.894,174.600 104.893 C 173.591 104.892,173.655 104.945,175.000 105.223 M129.600 106.524 C 129.600 106.617,130.365 107.198,131.300 107.815 C 132.235 108.432,132.789 108.680,132.531 108.368 C 132.034 107.767,129.600 106.236,129.600 106.524 M153.718 106.698 C 155.433 106.773,158.133 106.772,159.718 106.697 C 161.303 106.621,159.900 106.559,156.600 106.560 C 153.300 106.561,152.003 106.622,153.718 106.698 M163.300 107.076 C 163.685 107.176,164.315 107.176,164.700 107.076 C 165.085 106.975,164.770 106.893,164.000 106.893 C 163.230 106.893,162.915 106.975,163.300 107.076 M171.000 108.400 C 171.440 108.589,172.070 108.744,172.400 108.744 C 172.778 108.744,172.704 108.617,172.200 108.400 C 171.760 108.211,171.130 108.056,170.800 108.056 C 170.422 108.056,170.496 108.183,171.000 108.400 M192.433 109.749 C 192.845 110.117,195.200 111.200,195.200 111.021 C 195.200 110.790,192.982 109.600,192.553 109.600 C 192.396 109.600,192.342 109.667,192.433 109.749 M178.800 111.324 C 178.800 111.417,179.565 111.998,180.500 112.615 C 181.435 113.232,181.989 113.480,181.731 113.168 C 181.234 112.567,178.800 111.036,178.800 111.324 M195.600 111.325 C 195.600 111.424,196.261 112.009,197.068 112.625 C 197.876 113.241,198.411 113.541,198.256 113.291 C 197.940 112.779,195.600 111.047,195.600 111.325 M134.487 113.800 C 134.491 114.240,134.632 115.140,134.800 115.800 C 135.074 116.878,135.106 116.898,135.113 116.000 C 135.117 115.450,134.976 114.550,134.800 114.000 C 134.549 113.216,134.481 113.173,134.487 113.800 M184.200 115.600 C 185.283 116.700,186.260 117.600,186.370 117.600 C 186.480 117.600,185.683 116.700,184.600 115.600 C 183.517 114.500,182.540 113.600,182.430 113.600 C 182.320 113.600,183.117 114.500,184.200 115.600 M199.200 114.525 C 199.200 114.594,199.778 115.179,200.485 115.825 C 201.623 116.866,201.378 116.230,200.129 114.902 C 199.690 114.435,199.200 114.236,199.200 114.525 M135.393 163.000 C 135.393 186.540,135.441 196.111,135.500 184.269 C 135.559 172.427,135.559 153.167,135.500 141.469 C 135.441 129.771,135.393 139.460,135.393 163.000 M188.678 121.795 C 189.044 122.562,189.414 123.119,189.501 123.032 C 189.684 122.849,188.470 120.400,188.196 120.400 C 188.095 120.400,188.312 121.028,188.678 121.795 M205.081 126.400 C 205.206 127.610,205.374 128.675,205.454 128.767 C 205.735 129.087,205.517 126.191,205.187 125.200 C 204.971 124.554,204.934 124.980,205.081 126.400 M190.456 126.400 C 190.456 126.730,190.611 127.360,190.800 127.800 C 191.017 128.304,191.144 128.378,191.144 128.000 C 191.144 127.670,190.989 127.040,190.800 126.600 C 190.583 126.096,190.456 126.022,190.456 126.400 M191.314 131.800 C 191.317 132.900,191.395 133.303,191.487 132.695 C 191.579 132.086,191.577 131.186,191.482 130.695 C 191.387 130.203,191.311 130.700,191.314 131.800 M205.260 132.850 C 205.227 133.428,205.111 134.508,205.001 135.250 L 204.803 136.600 205.224 135.257 C 205.455 134.519,205.572 133.439,205.482 132.857 L 205.320 131.800 205.260 132.850 M191.314 136.600 C 191.317 137.700,191.395 138.103,191.487 137.495 C 191.579 136.886,191.577 135.986,191.482 135.495 C 191.387 135.003,191.311 135.500,191.314 136.600 M190.629 141.029 C 190.481 141.615,190.438 142.172,190.532 142.266 C 190.627 142.360,190.824 141.958,190.971 141.371 C 191.119 140.785,191.162 140.228,191.068 140.134 C 190.973 140.040,190.776 140.442,190.629 141.029 M201.561 144.500 C 201.304 144.995,200.476 146.165,199.720 147.100 C 198.965 148.035,198.493 148.793,198.673 148.784 C 199.247 148.757,202.783 143.600,202.228 143.600 C 202.118 143.600,201.818 144.005,201.561 144.500 M188.678 146.205 C 188.312 146.972,188.095 147.600,188.196 147.600 C 188.470 147.600,189.684 145.151,189.501 144.968 C 189.414 144.881,189.044 145.438,188.678 146.205 M185.000 151.114 C 183.900 152.157,182.550 153.331,182.000 153.723 C 181.037 154.408,181.048 154.409,182.300 153.731 C 183.433 153.118,187.681 149.186,187.185 149.209 C 187.083 149.213,186.100 150.071,185.000 151.114 M195.980 151.024 C 195.686 151.378,194.671 152.201,193.723 152.853 C 191.186 154.598,191.467 154.746,197.563 154.879 C 200.622 154.946,203.042 154.865,202.939 154.700 C 202.837 154.535,200.513 154.400,197.776 154.400 C 192.590 154.400,192.071 154.225,193.900 153.090 C 195.502 152.097,196.944 150.811,196.714 150.580 C 196.604 150.471,196.274 150.670,195.980 151.024 M176.954 154.706 C 176.709 154.868,176.386 155.450,176.237 156.000 L 175.967 157.000 176.548 156.000 C 176.999 155.224,177.562 154.947,179.065 154.763 L 181.000 154.526 179.200 154.469 C 178.210 154.438,177.199 154.544,176.954 154.706 M254.404 154.995 C 253.768 155.761,254.112 156.628,255.277 157.201 C 256.189 157.648,256.188 157.644,255.238 156.878 C 254.623 156.383,254.366 155.867,254.525 155.451 C 254.914 154.438,280.295 154.460,280.684 155.474 C 280.848 155.902,280.680 156.305,280.224 156.574 C 278.621 157.523,277.810 158.413,279.336 157.549 C 281.095 156.552,281.500 155.844,280.796 154.995 C 280.378 154.491,278.354 154.400,267.600 154.400 C 256.846 154.400,254.822 154.491,254.404 154.995 M203.200 155.962 C 203.200 156.161,202.390 156.799,201.400 157.379 C 200.410 157.959,199.603 158.651,199.606 158.917 C 199.610 159.256,199.700 159.268,199.906 158.960 C 200.068 158.718,200.965 158.040,201.900 157.455 C 203.342 156.552,204.111 155.600,203.400 155.600 C 203.290 155.600,203.200 155.763,203.200 155.962 M170.400 158.000 C 169.608 158.254,169.567 158.320,170.200 158.320 C 170.640 158.320,171.450 158.176,172.000 158.000 C 172.792 157.746,172.833 157.680,172.200 157.680 C 171.760 157.680,170.950 157.824,170.400 158.000 M257.446 158.781 C 257.912 159.342,258.492 160.160,258.734 160.600 C 258.977 161.040,259.181 161.172,259.188 160.894 C 259.195 160.616,258.615 159.798,257.900 159.076 C 257.185 158.354,256.981 158.221,257.446 158.781 M149.147 158.508 C 149.317 158.677,153.493 158.767,158.428 158.707 L 167.400 158.599 158.119 158.399 C 153.015 158.290,148.977 158.339,149.147 158.508 M160.833 160.944 C 160.925 161.024,162.350 161.185,164.000 161.303 C 165.758 161.428,166.503 161.388,165.800 161.206 C 164.587 160.891,160.525 160.678,160.833 160.944 M175.000 161.200 C 175.440 161.389,176.070 161.544,176.400 161.544 C 176.778 161.544,176.704 161.417,176.200 161.200 C 175.760 161.011,175.130 160.856,174.800 160.856 C 174.422 160.856,174.496 160.983,175.000 161.200 M168.200 162.000 C 168.640 162.189,169.270 162.344,169.600 162.344 C 169.978 162.344,169.904 162.217,169.400 162.000 C 168.960 161.811,168.330 161.656,168.000 161.656 C 167.622 161.656,167.696 161.783,168.200 162.000 M170.433 162.549 C 170.845 162.917,173.200 164.000,173.200 163.821 C 173.200 163.590,170.982 162.400,170.553 162.400 C 170.396 162.400,170.342 162.467,170.433 162.549 M197.018 165.418 C 196.865 166.439,196.822 167.355,196.922 167.455 C 197.022 167.555,197.229 166.802,197.382 165.782 C 197.535 164.761,197.578 163.845,197.478 163.745 C 197.378 163.645,197.171 164.398,197.018 165.418 M274.600 166.000 C 274.445 167.128,274.402 168.136,274.506 168.239 C 274.609 168.342,274.816 167.500,274.967 166.367 C 275.117 165.234,275.159 164.226,275.061 164.128 C 274.963 164.029,274.755 164.872,274.600 166.000 M260.070 165.000 C 260.057 165.440,260.195 166.520,260.377 167.400 C 260.655 168.745,260.708 168.809,260.707 167.800 C 260.705 166.399,260.108 163.770,260.070 165.000 M178.575 168.932 C 179.191 169.739,179.776 170.400,179.875 170.400 C 180.153 170.400,178.421 168.060,177.909 167.744 C 177.659 167.589,177.959 168.124,178.575 168.932 M180.600 172.000 C 180.941 172.660,181.311 173.200,181.421 173.200 C 181.531 173.200,181.341 172.660,181.000 172.000 C 180.659 171.340,180.289 170.800,180.179 170.800 C 180.069 170.800,180.259 171.340,180.600 172.000 M196.501 174.600 C 196.505 175.480,196.587 175.793,196.683 175.295 C 196.779 174.798,196.775 174.078,196.675 173.695 C 196.575 173.313,196.496 173.720,196.501 174.600 M148.847 207.033 C 148.873 208.115,149.035 209.540,149.206 210.200 C 149.388 210.903,149.428 210.158,149.303 208.400 C 149.057 204.959,148.777 204.118,148.847 207.033 M235.400 208.400 L 210.200 208.609 235.500 208.705 C 252.164 208.767,260.800 208.663,260.800 208.400 C 260.800 208.180,260.755 208.043,260.700 208.095 C 260.645 208.148,249.260 208.285,235.400 208.400 M134.640 210.840 C 134.493 211.757,134.452 212.585,134.547 212.680 C 134.642 212.776,134.846 212.110,135.000 211.200 C 135.154 210.290,135.196 209.462,135.093 209.360 C 134.990 209.257,134.787 209.923,134.640 210.840 M224.129 211.100 C 230.910 211.161,241.890 211.161,248.529 211.100 C 255.168 211.038,249.620 210.988,236.200 210.988 C 222.780 210.988,217.348 211.038,224.129 211.100 M196.586 232.600 C 196.586 244.260,196.637 248.972,196.700 243.072 C 196.762 237.171,196.762 227.631,196.700 221.872 C 196.637 216.112,196.586 220.940,196.586 232.600 M212.796 213.400 C 213.305 214.280,214.070 215.360,214.496 215.800 C 214.923 216.240,214.687 215.700,213.972 214.600 C 212.315 212.051,211.588 211.309,212.796 213.400 M131.662 217.485 C 129.949 219.268,130.111 219.478,131.937 217.840 C 132.724 217.134,133.883 215.516,133.514 215.638 C 133.451 215.658,132.618 216.489,131.662 217.485 M202.383 218.100 C 204.041 219.866,204.400 220.184,204.400 219.883 C 204.400 219.819,203.545 218.964,202.500 217.983 L 200.600 216.200 202.383 218.100 M152.909 218.400 C 153.469 218.840,154.057 219.200,154.217 219.200 C 154.377 219.200,154.050 218.840,153.491 218.400 C 152.931 217.960,152.343 217.600,152.183 217.600 C 152.023 217.600,152.350 217.960,152.909 218.400 M217.430 218.848 C 217.674 219.243,220.313 220.098,220.774 219.932 C 220.975 219.859,220.264 219.520,219.194 219.177 C 218.124 218.835,217.330 218.687,217.430 218.848 M155.103 220.207 L 155.291 221.189 141.946 221.300 L 128.600 221.411 142.100 221.506 L 155.600 221.600 155.600 220.624 C 155.600 220.087,155.446 219.552,155.258 219.436 C 155.070 219.319,155.000 219.666,155.103 220.207 M204.800 220.196 C 204.800 220.470,207.249 221.684,207.432 221.501 C 207.519 221.414,206.962 221.044,206.195 220.678 C 205.428 220.312,204.800 220.095,204.800 220.196 M208.400 221.982 C 208.730 222.205,209.345 222.391,209.767 222.394 C 210.790 222.402,210.471 222.173,209.000 221.844 C 208.124 221.648,207.962 221.685,208.400 221.982 M220.600 222.000 C 219.511 222.277,219.493 222.307,220.400 222.325 C 220.950 222.335,221.760 222.189,222.200 222.000 C 223.186 221.576,222.266 221.576,220.600 222.000 M213.100 222.682 C 213.595 222.778,214.405 222.778,214.900 222.682 C 215.395 222.587,214.990 222.509,214.000 222.509 C 213.010 222.509,212.605 222.587,213.100 222.682 M182.666 259.168 C 182.519 260.578,182.474 261.807,182.566 261.900 C 182.814 262.147,183.315 257.746,183.110 257.130 C 183.013 256.840,182.814 257.757,182.666 259.168 M260.233 260.033 C 260.083 261.166,260.041 262.174,260.139 262.272 C 260.237 262.371,260.445 261.528,260.600 260.400 C 260.755 259.272,260.798 258.264,260.694 258.161 C 260.591 258.058,260.384 258.900,260.233 260.033 M274.493 259.200 C 274.493 259.970,274.575 260.285,274.676 259.900 C 274.776 259.515,274.776 258.885,274.676 258.500 C 274.575 258.115,274.493 258.430,274.493 259.200 M181.829 263.829 C 181.681 264.415,181.638 264.972,181.732 265.066 C 181.827 265.160,182.024 264.758,182.171 264.171 C 182.319 263.585,182.362 263.028,182.268 262.934 C 182.173 262.840,181.976 263.242,181.829 263.829 M198.714 266.604 C 198.941 267.047,199.548 267.766,200.063 268.202 C 200.967 268.966,200.965 268.952,200.006 267.797 C 198.413 265.879,198.279 265.755,198.714 266.604 M178.456 268.813 C 177.216 269.846,177.775 269.835,179.091 268.800 C 179.650 268.360,179.949 268.006,179.754 268.013 C 179.559 268.021,178.975 268.381,178.456 268.813 M176.545 270.200 C 175.854 272.001,175.985 272.017,190.084 271.905 C 201.574 271.814,203.395 271.718,203.433 271.200 C 203.458 270.855,203.406 270.812,203.309 271.100 C 203.179 271.487,200.142 271.600,189.924 271.600 L 176.707 271.600 176.898 270.600 C 177.109 269.495,176.904 269.263,176.545 270.200 M254.145 270.200 C 253.454 272.001,253.585 272.017,267.684 271.905 C 281.681 271.795,282.615 271.655,280.887 269.927 C 280.637 269.677,280.569 269.904,280.696 270.570 L 280.893 271.600 267.600 271.600 L 254.307 271.600 254.498 270.600 C 254.709 269.495,254.504 269.263,254.145 270.200 " stroke="none" fill="#747474" fill-rule="evenodd"></path><path id="path3" d="M128.176 104.877 C 127.961 105.553,128.160 105.961,129.049 106.662 C 129.682 107.163,130.813 108.070,131.562 108.679 C 132.647 109.562,132.818 109.618,132.404 108.956 C 132.119 108.499,131.084 107.641,130.103 107.048 C 128.571 106.123,128.355 105.833,128.568 104.986 C 128.874 103.765,128.557 103.677,128.176 104.877 M167.233 104.152 C 167.325 104.236,169.200 104.401,171.400 104.518 C 174.291 104.673,174.790 104.641,173.200 104.406 C 170.878 104.061,166.951 103.894,167.233 104.152 M176.433 104.949 C 176.525 105.031,177.500 105.201,178.600 105.328 C 179.949 105.484,180.274 105.449,179.600 105.220 C 178.601 104.880,176.118 104.668,176.433 104.949 M182.200 106.000 C 182.640 106.189,183.360 106.338,183.800 106.332 C 184.443 106.323,184.404 106.257,183.600 106.000 C 182.232 105.562,181.181 105.562,182.200 106.000 M185.400 106.800 C 185.840 106.989,186.470 107.144,186.800 107.144 C 187.178 107.144,187.104 107.017,186.600 106.800 C 186.160 106.611,185.530 106.456,185.200 106.456 C 184.822 106.456,184.896 106.583,185.400 106.800 M154.900 107.096 C 156.165 107.175,158.235 107.175,159.500 107.096 C 160.765 107.016,159.730 106.951,157.200 106.951 C 154.670 106.951,153.635 107.016,154.900 107.096 M163.233 107.344 C 163.325 107.423,164.390 107.589,165.600 107.712 C 166.969 107.851,167.498 107.808,167.000 107.596 C 166.233 107.270,162.889 107.047,163.233 107.344 M168.833 108.144 C 168.925 108.223,169.540 108.408,170.200 108.556 C 171.076 108.752,171.238 108.715,170.800 108.418 C 170.260 108.053,168.432 107.798,168.833 108.144 M191.200 108.800 C 191.970 109.222,192.780 109.566,193.000 109.566 C 193.220 109.566,192.770 109.222,192.000 108.800 C 191.230 108.378,190.420 108.034,190.200 108.034 C 189.980 108.034,190.430 108.378,191.200 108.800 M175.544 110.409 C 176.503 110.844,177.403 111.192,177.544 111.183 C 178.049 111.150,174.987 109.633,174.400 109.626 C 174.070 109.621,174.585 109.974,175.544 110.409 M193.800 109.872 C 194.020 110.092,195.100 110.857,196.200 111.572 C 197.300 112.287,197.840 112.523,197.400 112.096 C 196.960 111.670,195.880 110.905,195.000 110.396 C 194.120 109.888,193.580 109.652,193.800 109.872 M178.000 111.300 C 178.110 111.424,179.188 112.189,180.396 113.000 C 181.604 113.811,182.283 114.134,181.905 113.717 C 181.528 113.299,180.450 112.534,179.509 112.016 C 178.569 111.499,177.890 111.176,178.000 111.300 M133.656 112.000 C 133.656 112.330,133.811 112.960,134.000 113.400 C 134.217 113.904,134.344 113.978,134.344 113.600 C 134.344 113.270,134.189 112.640,134.000 112.200 C 133.783 111.696,133.656 111.622,133.656 112.000 M200.197 114.900 C 201.272 116.165,202.223 117.200,202.310 117.200 C 202.583 117.200,200.129 114.236,199.164 113.400 C 198.656 112.960,199.121 113.635,200.197 114.900 M184.000 115.800 C 184.746 116.570,185.447 117.200,185.557 117.200 C 185.667 117.200,185.146 116.570,184.400 115.800 C 183.654 115.030,182.953 114.400,182.843 114.400 C 182.733 114.400,183.254 115.030,184.000 115.800 M134.600 162.818 C 134.600 189.073,134.714 210.024,134.853 209.377 C 135.199 207.763,135.222 118.586,134.877 116.641 C 134.725 115.784,134.600 136.564,134.600 162.818 M186.655 119.000 C 187.267 119.880,187.820 120.675,187.884 120.767 C 187.948 120.858,188.000 120.762,188.000 120.552 C 188.000 120.342,187.447 119.547,186.771 118.785 L 185.542 117.400 186.655 119.000 M203.520 119.981 C 204.098 121.290,204.642 122.292,204.727 122.206 C 204.913 122.020,202.926 117.600,202.656 117.600 C 202.552 117.600,202.941 118.671,203.520 119.981 M204.868 123.200 C 204.888 124.239,205.518 125.946,205.532 125.000 C 205.538 124.560,205.389 123.840,205.200 123.400 C 204.989 122.910,204.861 122.832,204.868 123.200 M205.744 130.400 C 205.744 132.490,205.812 133.345,205.894 132.300 C 205.976 131.255,205.976 129.545,205.894 128.500 C 205.812 127.455,205.744 128.310,205.744 130.400 M190.688 129.600 C 190.811 130.810,190.977 131.875,191.056 131.967 C 191.353 132.311,191.130 128.967,190.804 128.200 C 190.592 127.702,190.549 128.231,190.688 129.600 M205.022 136.622 C 204.872 137.425,204.828 138.162,204.926 138.260 C 205.024 138.357,205.227 137.781,205.378 136.978 C 205.528 136.175,205.572 135.438,205.474 135.340 C 205.376 135.243,205.173 135.819,205.022 136.622 M190.862 137.600 C 190.822 138.370,190.696 139.450,190.583 140.000 L 190.377 141.000 190.808 140.014 C 191.044 139.471,191.170 138.391,191.086 137.614 L 190.934 136.200 190.862 137.600 M190.046 141.667 C 190.021 142.034,189.896 142.664,189.770 143.067 C 189.552 143.762,189.563 143.763,189.997 143.087 C 190.248 142.696,190.373 142.066,190.273 141.687 C 190.111 141.068,190.088 141.066,190.046 141.667 M200.985 146.100 C 200.368 147.035,200.120 147.589,200.432 147.331 C 201.033 146.834,202.564 144.400,202.276 144.400 C 202.183 144.400,201.602 145.165,200.985 146.100 M186.434 149.013 C 185.067 150.916,181.563 153.783,180.200 154.113 C 179.478 154.288,179.473 154.312,180.146 154.354 C 181.575 154.442,186.237 150.369,187.762 147.700 C 188.407 146.571,187.651 147.318,186.434 149.013 M197.747 149.855 C 195.563 152.160,196.130 152.112,198.400 149.800 C 199.372 148.810,199.994 148.025,199.783 148.055 C 199.572 148.085,198.656 148.895,197.747 149.855 M194.105 152.925 C 192.703 153.872,192.451 154.400,193.400 154.400 C 193.730 154.400,193.955 154.244,193.900 154.053 C 193.845 153.862,194.250 153.328,194.800 152.866 C 196.091 151.782,195.754 151.810,194.105 152.925 M203.499 155.381 C 203.646 156.155,203.373 156.533,202.073 157.354 C 200.348 158.443,198.398 160.718,198.402 161.638 C 198.404 161.947,198.686 161.660,199.030 161.001 C 199.926 159.282,200.792 158.421,202.500 157.549 C 203.958 156.805,204.591 155.212,203.658 154.636 C 203.470 154.519,203.398 154.855,203.499 155.381 M253.600 155.520 C 253.600 156.666,254.230 157.610,254.980 157.587 C 255.211 157.580,255.062 157.319,254.650 157.006 C 254.139 156.620,253.962 156.113,254.094 155.419 C 254.201 154.859,254.134 154.400,253.945 154.400 C 253.755 154.400,253.600 154.904,253.600 155.520 M281.106 155.419 C 281.237 156.107,281.057 156.634,280.550 157.041 C 279.844 157.609,279.853 157.619,280.700 157.208 C 281.588 156.778,282.058 154.400,281.255 154.400 C 281.066 154.400,280.999 154.859,281.106 155.419 M172.400 157.200 C 171.596 157.457,171.557 157.523,172.200 157.532 C 172.640 157.538,173.360 157.389,173.800 157.200 C 174.819 156.762,173.768 156.762,172.400 157.200 M159.000 158.000 L 149.000 158.221 158.800 158.263 C 164.190 158.286,169.140 158.168,169.800 158.000 C 170.818 157.741,170.849 157.701,170.000 157.737 C 169.450 157.760,164.500 157.878,159.000 158.000 M256.800 158.836 C 257.570 159.586,258.274 160.156,258.364 160.102 C 258.630 159.945,257.079 158.363,256.204 157.899 C 255.762 157.665,256.030 158.086,256.800 158.836 M277.924 158.700 C 276.788 159.918,275.837 161.571,276.114 161.847 C 276.212 161.945,276.520 161.476,276.798 160.805 C 277.076 160.133,277.834 159.137,278.483 158.592 C 279.131 158.046,279.501 157.600,279.306 157.600 C 279.110 157.600,278.488 158.095,277.924 158.700 M178.400 159.634 C 177.489 159.958,177.510 159.974,178.642 159.816 C 179.325 159.721,180.126 159.859,180.422 160.122 C 180.873 160.522,180.875 160.485,180.432 159.900 C 179.848 159.129,179.831 159.127,178.400 159.634 M174.644 160.329 C 174.424 160.684,178.318 161.815,178.642 161.491 C 178.750 161.384,178.154 161.163,177.319 161.000 C 176.038 160.751,175.925 160.654,176.600 160.380 C 177.261 160.112,177.179 160.051,176.124 160.028 C 175.422 160.013,174.756 160.148,174.644 160.329 M180.930 161.361 C 181.147 161.926,181.031 162.006,180.297 161.800 C 179.594 161.602,179.530 161.639,180.000 161.968 C 180.330 162.199,180.825 162.391,181.100 162.394 C 181.732 162.402,181.755 161.343,181.132 160.958 C 180.814 160.761,180.749 160.890,180.930 161.361 M149.199 161.500 C 149.199 161.665,151.404 161.753,154.099 161.695 C 163.315 161.499,164.201 161.357,156.700 161.278 C 152.575 161.235,149.200 161.335,149.199 161.500 M165.233 161.747 C 165.325 161.828,166.120 162.004,167.000 162.138 C 168.115 162.307,168.358 162.271,167.800 162.019 C 167.032 161.671,164.890 161.444,165.233 161.747 M197.849 163.015 C 197.712 163.373,197.618 164.056,197.641 164.533 C 197.667 165.081,197.803 164.886,198.010 164.003 C 198.360 162.516,198.265 161.933,197.849 163.015 M275.456 163.284 C 275.321 163.788,275.227 164.560,275.246 165.000 C 275.265 165.440,275.445 165.098,275.646 164.240 C 276.036 162.578,275.870 161.740,275.456 163.284 M259.458 164.000 C 259.775 165.725,260.002 166.051,259.994 164.767 C 259.991 164.235,259.811 163.530,259.594 163.200 C 259.318 162.778,259.277 163.015,259.458 164.000 M174.493 165.381 C 175.488 166.140,176.973 167.535,177.793 168.481 C 178.809 169.652,179.011 169.791,178.428 168.919 C 177.500 167.529,173.641 164.000,173.049 164.000 C 172.849 164.000,173.499 164.621,174.493 165.381 M197.059 168.100 C 196.452 173.158,197.062 178.800,198.217 178.800 C 198.449 178.800,197.940 177.483,197.478 176.887 C 197.233 176.571,197.169 174.383,197.311 171.187 C 197.556 165.683,197.472 164.660,197.059 168.100 M260.332 187.300 L 260.463 208.000 235.639 208.000 L 210.815 208.000 209.826 206.100 C 209.282 205.055,208.832 204.380,208.825 204.600 C 208.819 204.820,209.221 205.720,209.719 206.600 L 210.625 208.200 235.613 208.200 L 260.600 208.200 260.704 190.153 C 260.761 180.228,260.671 170.868,260.504 169.353 C 260.337 167.839,260.259 175.915,260.332 187.300 M274.657 169.259 C 274.319 172.493,274.392 255.610,274.735 258.200 C 274.881 259.300,275.000 239.185,275.000 213.500 C 275.000 187.815,274.981 166.800,274.957 166.800 C 274.933 166.800,274.798 167.906,274.657 169.259 M180.600 172.800 C 180.941 173.460,181.311 174.000,181.421 174.000 C 181.531 174.000,181.341 173.460,181.000 172.800 C 180.659 172.140,180.289 171.600,180.179 171.600 C 180.069 171.600,180.259 172.140,180.600 172.800 M182.896 214.800 C 182.840 235.590,182.715 254.130,182.617 256.000 L 182.440 259.400 182.822 256.066 C 183.046 254.109,183.161 237.095,183.100 214.866 L 182.996 177.000 182.896 214.800 M200.117 183.300 C 200.229 183.575,200.907 185.286,201.624 187.103 C 202.341 188.920,202.997 190.336,203.082 190.251 C 203.277 190.057,200.388 182.800,200.115 182.800 C 200.005 182.800,200.006 183.025,200.117 183.300 M206.400 198.884 C 206.400 199.316,207.615 202.000,207.811 202.000 C 207.921 202.000,207.733 201.334,207.393 200.521 C 206.793 199.086,206.400 198.438,206.400 198.884 M149.350 204.200 C 149.351 206.620,149.416 207.558,149.496 206.285 C 149.576 205.012,149.575 203.032,149.494 201.885 C 149.414 200.738,149.349 201.780,149.350 204.200 M149.628 210.633 C 149.644 211.275,149.816 212.160,150.010 212.600 C 150.247 213.134,150.286 212.802,150.127 211.600 C 149.846 209.480,149.588 208.980,149.628 210.633 M196.895 234.467 L 196.990 257.800 197.195 234.702 L 197.400 211.604 198.523 213.602 C 199.141 214.701,199.741 215.600,199.856 215.600 C 200.215 215.600,197.676 211.425,197.225 211.275 C 196.927 211.176,196.828 218.117,196.895 234.467 M212.400 211.720 C 212.400 212.010,212.680 212.596,213.022 213.024 C 213.623 213.774,213.630 213.770,213.222 212.926 C 212.990 212.446,212.800 211.951,212.800 211.826 C 212.800 211.702,223.521 211.600,236.625 211.600 L 260.451 211.600 260.325 235.696 C 260.256 248.949,260.335 258.714,260.501 257.396 C 260.666 256.078,260.756 245.190,260.701 233.200 L 260.600 211.400 236.500 211.297 C 216.784 211.213,212.400 211.290,212.400 211.720 M134.046 212.067 C 134.021 212.434,133.896 213.064,133.770 213.467 C 133.552 214.162,133.563 214.163,133.997 213.487 C 134.248 213.096,134.373 212.466,134.273 212.087 C 134.111 211.468,134.088 211.466,134.046 212.067 M150.409 213.920 C 150.384 215.364,152.446 217.863,154.400 218.758 C 155.245 219.146,155.285 219.138,154.657 218.708 C 152.539 217.261,151.835 216.520,151.159 215.031 C 150.751 214.134,150.414 213.634,150.409 213.920 M214.329 215.000 C 215.561 216.723,216.096 217.322,217.000 217.998 C 217.440 218.326,217.007 217.696,216.038 216.598 C 213.670 213.912,213.310 213.576,214.329 215.000 M132.590 215.917 C 132.127 216.780,131.106 217.770,130.121 218.312 C 128.303 219.313,127.652 220.499,128.416 221.419 C 128.822 221.909,130.973 221.986,142.149 221.908 L 155.400 221.816 142.005 221.608 C 126.445 221.366,126.167 221.284,130.778 218.292 C 132.042 217.472,133.910 214.977,133.538 214.605 C 133.452 214.518,133.025 215.109,132.590 215.917 M201.159 217.437 C 202.666 219.374,206.400 222.215,206.400 221.424 C 206.400 221.312,205.905 220.964,205.300 220.651 C 204.695 220.338,203.229 219.119,202.043 217.941 C 200.159 216.072,200.047 216.008,201.159 217.437 M221.798 219.487 C 224.398 219.668,225.063 221.145,222.900 221.935 C 222.295 222.156,222.081 222.351,222.424 222.368 C 223.518 222.424,224.485 221.419,224.338 220.378 C 224.211 219.475,224.024 219.397,221.898 219.367 L 219.596 219.334 221.798 219.487 M211.093 222.955 C 212.326 223.164,214.873 223.160,217.293 222.943 L 221.400 222.577 215.200 222.588 C 210.256 222.598,209.424 222.672,211.093 222.955 M197.293 259.200 C 197.293 259.970,197.375 260.285,197.476 259.900 C 197.576 259.515,197.576 258.885,197.476 258.500 C 197.375 258.115,197.293 258.430,197.293 259.200 M182.060 261.267 C 182.027 261.854,181.896 262.664,181.770 263.067 C 181.552 263.760,181.565 263.761,181.995 263.090 C 182.246 262.699,182.377 261.889,182.286 261.290 L 182.120 260.200 182.060 261.267 M259.649 261.400 C 259.616 261.840,259.496 262.650,259.383 263.200 L 259.177 264.200 259.606 263.219 C 259.842 262.679,259.961 261.869,259.872 261.419 C 259.713 260.621,259.707 260.621,259.649 261.400 M275.206 262.033 C 275.209 262.565,275.389 263.270,275.606 263.600 C 275.882 264.022,275.923 263.785,275.742 262.800 C 275.425 261.075,275.198 260.749,275.206 262.033 M197.668 262.200 C 197.662 262.640,197.811 263.360,198.000 263.800 C 198.438 264.819,198.438 263.768,198.000 262.400 C 197.743 261.596,197.677 261.557,197.668 262.200 M180.683 265.794 C 180.320 266.555,179.271 267.723,178.352 268.389 C 177.432 269.055,176.846 269.600,177.049 269.600 C 178.186 269.600,182.105 265.171,181.501 264.568 C 181.414 264.481,181.046 265.033,180.683 265.794 M258.601 265.196 C 258.452 265.667,257.761 266.700,257.066 267.491 C 256.153 268.531,256.044 268.779,256.672 268.387 C 257.592 267.813,259.422 264.888,259.077 264.544 C 258.965 264.431,258.751 264.725,258.601 265.196 M198.407 265.041 C 198.392 266.007,200.325 268.252,201.938 269.142 C 203.238 269.860,203.615 270.289,203.522 270.942 C 203.401 271.795,203.321 271.801,190.000 272.008 L 176.600 272.216 189.800 272.302 C 197.060 272.349,203.241 272.235,203.535 272.049 C 204.575 271.389,203.866 269.886,202.000 268.799 C 200.946 268.184,199.830 267.097,199.307 266.175 C 198.815 265.309,198.410 264.798,198.407 265.041 M254.500 269.288 C 253.831 269.611,253.614 270.040,253.654 270.961 C 253.702 272.044,253.731 272.074,253.885 271.200 C 253.982 270.650,254.452 269.889,254.931 269.509 C 255.919 268.723,255.799 268.662,254.500 269.288 M280.269 269.489 C 280.748 269.880,281.218 270.650,281.315 271.200 C 281.469 272.076,281.498 272.047,281.546 270.964 C 281.589 269.972,281.383 269.635,280.500 269.253 C 279.404 268.780,279.403 268.781,280.269 269.489 M176.093 270.800 C 176.093 271.570,176.175 271.885,176.276 271.500 C 176.376 271.115,176.376 270.485,176.276 270.100 C 176.175 269.715,176.093 270.030,176.093 270.800 M260.900 272.299 C 264.585 272.365,270.615 272.365,274.300 272.299 C 277.985 272.233,274.970 272.179,267.600 272.179 C 260.230 272.179,257.215 272.233,260.900 272.299 " stroke="none" fill="#9f9f9f" fill-rule="evenodd"></path><path id="path4" d="M164.100 104.287 C 164.705 104.378,165.695 104.378,166.300 104.287 C 166.905 104.195,166.410 104.120,165.200 104.120 C 163.990 104.120,163.495 104.195,164.100 104.287 M150.900 107.076 C 151.285 107.176,151.915 107.176,152.300 107.076 C 152.685 106.975,152.370 106.893,151.600 106.893 C 150.830 106.893,150.515 106.975,150.900 107.076 M148.988 132.800 C 148.988 146.770,149.039 152.485,149.100 145.500 C 149.161 138.515,149.161 127.085,149.100 120.100 C 149.039 113.115,148.988 118.830,148.988 132.800 M152.300 161.097 C 153.895 161.173,156.505 161.173,158.100 161.097 C 159.695 161.021,158.390 160.959,155.200 160.959 C 152.010 160.959,150.705 161.021,152.300 161.097 M148.987 183.400 C 148.987 195.500,149.037 200.508,149.100 194.528 C 149.162 188.549,149.162 178.649,149.100 172.528 C 149.038 166.408,148.987 171.300,148.987 183.400 " stroke="none" fill="#7c7c7c" fill-rule="evenodd"></path></g></svg>